<?xml version="1.0" encoding="utf-8"?>
<!-- Generator: Adobe Illustrator 16.0.0, SVG Export Plug-In . SVG Version: 6.00 Build 0)  -->
<!DOCTYPE svg PUBLIC "-//W3C//DTD SVG 1.1//EN" "http://www.w3.org/Graphics/SVG/1.1/DTD/svg11.dtd">
<svg version="1.1" id="Layer_1" xmlns="http://www.w3.org/2000/svg" xmlns:xlink="http://www.w3.org/1999/xlink" x="0px" y="0px"
	 width="472.515px" height="334.75px" viewBox="0 0 472.515 334.75" enable-background="new 0 0 472.515 334.75"
	 xml:space="preserve">
<path fill="none" d="M466.784,289.096c-19.819-44.215-43.995-81.564-67.933-111.504c-2.332-2.916-4.662-5.788-6.985-8.564
	c2.316-2.766,4.64-5.63,6.966-8.539c24.858-31.086,49.992-70.137,70.223-116.6c1.143-0.673,2.299-1.323,3.461-1.964
	C457.635,25.274,441.038,10.729,421.582,0c-0.002,0.001-0.002,0.003-0.002,0.004c-19.26,51.4-44.741,93.67-70.138,125.975
	c-3.8-3.594-7.578-7.044-11.338-10.385c-10.131-8.999-20.118-17.106-29.979-24.481c-12.054-9.014-23.921-16.947-35.626-24.059
	c-0.02-0.012-0.04-0.024-0.059-0.036c-0.003,0.003-0.006,0.007-0.009,0.01c-2.354-0.986-4.749-1.889-7.181-2.713
	c-17.626,9.726-32.402,23.938-35.003,42.984c1.734,0.025,3.454,0.11,5.152,0.275c17.174,11.98,34.324,24.552,51.654,39.414
	c7.942,6.811,15.924,14.102,23.963,22.038c-8.049,7.948-16.041,15.271-23.995,22.122c-17.194,14.808-34.208,27.404-51.245,39.298
	c-2.103,0.219-4.234,0.33-6.393,0.33c-2.701,0-5.357-0.193-7.969-0.531c-2.886,16.344-1.593,33.451,3.258,49.506
	c1.787,0.088,3.585,0.135,5.394,0.135c31.089,0,59.149-12.957,79.181-33.764c9.518-7.164,19.154-15.027,28.955-23.748
	c3.723-3.309,7.467-6.73,11.238-10.299c24.876,31.643,49.912,72.697,69.029,122.674
	C432.146,316.303,448.086,300.733,466.784,289.096z"/>
<g>
	<path fill="none" d="M62.172,173.811L12.645,99.626h51.002l21.496,41.097l26.555-41.097h51.001l-52.478,74.185l59.222,84.721
		h-50.369l-31.824-51.844l-37.303,51.844H0L62.172,173.811z"/>
	<path fill="none" d="M227.397,258.532H186.09V99.626h65.754c17.841,0,31.508,4.636,40.99,13.909
		c9.484,9.273,14.227,22.341,14.227,39.2c0,16.861-4.742,29.927-14.227,39.2c-9.482,9.273-23.149,13.909-40.99,13.909h-24.447
		V258.532z M227.397,172.546h13.699c15.174,0,22.761-6.603,22.761-19.811c0-13.205-7.587-19.811-22.761-19.811h-13.699V172.546z"/>
</g>
</svg>
