<?xml version="1.0" encoding="utf-8"?>
<!-- Generator: Adobe Illustrator 16.0.0, SVG Export Plug-In . SVG Version: 6.00 Build 0)  -->
<!DOCTYPE svg PUBLIC "-//W3C//DTD SVG 1.1//EN" "http://www.w3.org/Graphics/SVG/1.1/DTD/svg11.dtd">
<svg version="1.1" id="Layer_1" xmlns="http://www.w3.org/2000/svg" xmlns:xlink="http://www.w3.org/1999/xlink" x="0px" y="0px"
	 width="472.515px" height="334.75px" viewBox="0 0 472.515 334.75" enable-background="new 0 0 472.515 334.75"
	 xml:space="preserve">
<g>
	<path d="M469.054,43.889c1.143-0.673,2.299-1.323,3.461-1.964C457.635,25.274,441.038,10.729,421.582,0
		c-0.002,0.001-0.002,0.003-0.002,0.004c-19.26,51.4-44.741,93.67-70.138,125.975c-3.8-3.594-7.578-7.044-11.338-10.385
		c-10.131-8.999-20.118-17.106-29.979-24.481c-12.054-9.014-23.921-16.947-35.626-24.059c-0.02-0.012-0.04-0.024-0.059-0.036
		c-0.003,0.003-0.006,0.007-0.009,0.01c-2.354-0.986-4.749-1.788-7.181-2.612c-15.171,8.371-28.223,20.411-33.225,35.411h-48.17v159
		h36.581c0.719,7,2.145,14.146,4.238,21.072c1.787,0.088,3.585,0.062,5.394,0.062c31.089,0,59.149-12.994,79.181-33.801
		c9.518-7.164,19.154-15.046,28.955-23.767c3.723-3.309,7.467-6.74,11.238-10.308c24.876,31.642,49.912,72.693,69.029,122.669
		c11.675-18.447,27.615-34.021,46.312-45.657c-19.819-44.215-43.995-81.565-67.933-111.505c-2.332-2.916-4.662-5.789-6.985-8.565
		c2.316-2.766,4.64-5.63,6.966-8.539C423.69,129.403,448.824,90.352,469.054,43.889z M227.856,132.828h13.24
		c15.174,0,22.761,6.795,22.761,20c0,13.208-7.587,20-22.761,20h-13.24V132.828z M231.615,230.778c-1.34,0-2.759-0.048-3.759-0.138
		v-24.812h23.988c8.963,0,16.87-1.164,23.725-3.504c-12.64,10.158-25.094,19.336-37.676,28.12
		C235.79,230.663,233.773,230.778,231.615,230.778z M301.386,180.127c2.546-5.131,4.228-10.954,5.059-17.457
		c2.188,2.075,4.378,4.189,6.573,6.357C309.128,172.869,305.251,176.561,301.386,180.127z"/>
	<polygon points="162.699,99.828 111.698,99.828 85.143,140.924 63.647,99.828 12.645,99.828 62.172,174.06 0,258.828 
		49.948,258.828 87.251,206.984 119.075,258.828 169.444,258.828 110.222,174.06 	"/>
</g>
</svg>
